PathFileType	4	(X/Y/Z)	Trial.trc
DataRate	CameraRate	NumFrames	NumMarkers	Units	OrigDataRate	OrigDataStartFrame	OrigNumFrames
9	9	10	2	mm	9	1	10
Frame#	Time	Marker1			Marker2		
		X1	Y1	Z1	X2	Y2	Z2
1	0	-0.121068416238337	-0.235831593551572	-0.133016333567364	1.12250207414857	-0.567311931376699	1.51619349709729
2	0.111111111111111	1.51942551138029	0.909919978751348	0.0295288366017734	0.717697087688787	0.218530370276321	-1.20922826273343
3	0.222222222222222	0.582001872668347	0.69279483848033	2.30489666632926	-1.43592673705912	-0.955068801362633	0.092120972904
4	0.333333333333333	1.62312499327894	0.0474608153304396	0.388806726458829	1.22108456442368	0.455182472870864	-0.802331379479975
5	0.444444444444444	-0.467173631699401	-0.195595506734306	-0.321403695059171	-2.97793475616939	1.27415012357472	0.227354285984811
6	0.555555555555556	0.244600559284317	1.2418085408326	-0.621227880535597	-0.944728037456527	1.09695422445077	-0.60648163868709
7	0.666666666666667	0.36974150228586	0.711742097402884	-0.296078970855421	0.928906011348087	1.29979920811665	1.18178117386176
8	0.777777777777778	0.453471356740547	-0.997289140012206	-1.18220155268919	-1.08959946106718	-0.876744132729316	-0.853081463798662
9	0.888888888888889	-0.189827047409642	-0.165554228470353	0.451308685273713	2.18858202842124	0.322722342956786	-0.447611726989089
10	1	1.27308335817879	1.37138585887341	1.44266362552889	0.77951365982174	-1.07793057641674	0.938431258615576
